<?xml version="1.0" encoding="utf-8"?>
<!-- Generator: Adobe Illustrator 21.0.0, SVG Export Plug-In . SVG Version: 6.00 Build 0)  -->
<svg version="1.1" id="Layer_1" xmlns="http://www.w3.org/2000/svg" xmlns:xlink="http://www.w3.org/1999/xlink" x="0px" y="0px"
	 viewBox="0 0 291 113" style="enable-background:new 0 0 291 113;" xml:space="preserve">
<g>
	<path d="M15.1,64.4c2.8,0,5.4,0.6,7.6,1.7v6.1c-2-1.4-4.7-2.4-7.5-2.4c-5.3,0-8.9,3.7-8.9,8.6c0,4.9,3.5,8.7,9.1,8.7
		c2.8,0,5.5-1,7.7-2.5v6.1c-2.3,1.2-5.3,1.8-8,1.8c-8.8,0-14.8-6.1-14.8-14C0.2,70.6,6.3,64.4,15.1,64.4z"/>
	<path d="M36.4,78.5c0-8,6.1-14.1,14.2-14.1c8.1,0,14.2,6.1,14.2,14.1c0,8-6.1,14.1-14.2,14.1C42.5,92.5,36.4,86.4,36.4,78.5z
		 M58.9,78.5c0-4.8-3.5-8.6-8.3-8.6c-4.7,0-8.3,3.8-8.3,8.6s3.5,8.6,8.3,8.6C55.4,87.1,58.9,83.3,58.9,78.5z"/>
	<path d="M79.2,64.8h7.7c10.9,0,16.7,4.9,16.7,13.6c0,8.4-5.3,13.7-17,13.7h-7.4V64.8z M86.9,86.9c7.5,0,10.7-3.1,10.7-8.4
		c0-2.9-1.1-5.3-3.2-6.7c-1.9-1.4-4.5-1.7-7.6-1.7h-1.6v16.8H86.9z"/>
	<path d="M117.8,64.8h16.8v5.2h-10.9v5.4h9.3v5h-9.3v6.5H135v5.2h-17.3V64.8z"/>
	<path d="M149.5,64.8h6v10.6h11.8V64.8h6v27.3h-6V80.6h-11.8v11.5h-6V64.8z"/>
	<path d="M188.8,64.8h6v27.3h-6V64.8z"/>
	<path d="M210.3,64.8h6v22h11.9v5.2h-17.9V64.8z"/>
	<path d="M241.8,64.8h6v22h11.9v5.2h-17.9V64.8z"/>
	<path d="M273.1,84.6c2.9,1.9,6.4,2.7,8.6,2.7c2.2,0,3.8-0.9,3.8-2.9c0-2.5-2.6-2.8-6.1-3.9c-3.8-1.2-7.2-3.1-7.2-7.8
		c0-5.1,3.8-8.3,9.6-8.3c2.7,0,6,0.7,8.3,2v5.9c-2.9-1.8-6.3-2.6-8.4-2.6c-2,0-3.5,0.8-3.5,2.6c0,2.4,2.5,2.6,5.8,3.7
		c4.1,1.4,7.4,3.3,7.4,8.1c0,5.3-4,8.5-9.9,8.5c-2.7,0-6-0.7-8.5-1.9V84.6z"/>
</g>
<g>
	<path d="M112.9,110.6c0.9,0.6,2.1,0.9,2.7,0.9c0.7,0,1.2-0.3,1.2-0.9c0-0.8-0.8-0.9-1.9-1.2c-1.2-0.4-2.3-1-2.3-2.5
		c0-1.6,1.2-2.6,3.1-2.6c0.9,0,1.9,0.2,2.7,0.6v1.9c-0.9-0.6-2-0.8-2.7-0.8c-0.7,0-1.1,0.2-1.1,0.8c0,0.8,0.8,0.8,1.9,1.2
		c1.3,0.4,2.4,1.1,2.4,2.6c0,1.7-1.3,2.7-3.2,2.7c-0.9,0-1.9-0.2-2.7-0.6V110.6z"/>
	<path d="M127,106h-2.8v-1.7h7.6v1.7h-2.8v7.1H127V106z"/>
	<path d="M137.5,108.8v-4.6h1.9v4.5c0,1.8,0.4,2.7,1.9,2.7c1.4,0,1.9-0.8,1.9-2.7v-4.5h1.9v4.5c0,1.3-0.2,2.3-0.7,3
		c-0.6,0.9-1.7,1.4-3.1,1.4s-2.5-0.5-3.2-1.4C137.6,111.1,137.5,110.1,137.5,108.8z"/>
	<path d="M151.4,104.3h2.5c3.5,0,5.4,1.6,5.4,4.4c0,2.7-1.7,4.4-5.4,4.4h-2.4V104.3z M153.9,111.4c2.4,0,3.4-1,3.4-2.7
		c0-0.9-0.4-1.7-1-2.2c-0.6-0.4-1.5-0.5-2.4-0.5h-0.5v5.4H153.9z"/>
	<path d="M165.3,104.3h1.9v8.8h-1.9V104.3z"/>
	<path d="M173.2,108.7c0-2.6,2-4.5,4.6-4.5s4.6,2,4.6,4.5c0,2.6-2,4.5-4.6,4.5S173.2,111.2,173.2,108.7z M180.5,108.7
		c0-1.5-1.1-2.8-2.6-2.8s-2.7,1.2-2.7,2.8s1.1,2.8,2.7,2.8S180.5,110.2,180.5,108.7z"/>
</g>
<g>
	<path d="M213.2,44.4c-0.1,0-0.3,0-0.5-0.2L178.6,10l-34.1,34.1c-0.2,0.2-0.4,0.2-0.5,0.2c-0.1,0-0.3,0-0.5-0.2l-4.2-4.2
		c-0.2-0.2-0.2-0.4-0.2-0.5c0-0.1,0-0.3,0.2-0.5l38.8-38.8c0.2-0.2,0.4-0.2,0.5-0.2s0.3,0,0.5,0.2L217.8,39c0.2,0.2,0.2,0.4,0.2,0.5
		s0,0.3-0.2,0.5l-4.2,4.2C213.4,44.3,213.3,44.4,213.2,44.4z"/>
	<path d="M128.5,44.4c-0.3,0-0.6-0.1-0.9-0.4l-22-22l-22,22c-0.3,0.3-0.6,0.4-0.9,0.4c-0.3,0-0.6-0.1-0.9-0.4L79,41.2
		c-0.3-0.3-0.4-0.6-0.4-0.9s0.1-0.6,0.4-0.9l25.7-25.7c0.3-0.3,0.6-0.4,0.9-0.4s0.6,0.1,0.9,0.4l25.7,25.7c0.3,0.3,0.4,0.6,0.4,0.9
		s-0.1,0.6-0.4,0.9l-2.8,2.8C129.1,44.2,128.8,44.4,128.5,44.4z"/>
</g>
</svg>
